
        <svg xmlns="http://www.w3.org/2000/svg" xmlns:xlink="http://www.w3.org/1999/xlink" version="1.1" width="3195.350406783594" 
        height="1113.1066178529188" viewBox="0 0 3195.350406783594 1113.1066178529188">
			
			<g transform="scale(9.767520339179702) translate(10, 10)">
				<defs id="SvgjsDefs2049"></defs><g id="SvgjsG2050" featureKey="nameLeftFeature-0" transform="matrix(2.503477031536842,0,0,2.503477031536842,0,14.880388682631581)" fill="#137dc5"><path d="M6.92 5.68 l0 1.92 l-2.38 0 l0 12.42 l-1.92 0 l0 -12.42 l-2.62 0 l0 -1.92 l6.92 0 z M12.594000000000001 20 l-0.72 -4.94 l-2.02 0 l-0.66 4.94 l-1.92 0 l2.16 -14.3 l2.58 0 l2.5 14.3 l-1.92 0 z M10.114 13.16 l1.48 0 l-0.76 -5.2 z M18.248 18.12 l2.76 0 l0 1.88 l-4.64 0 l0 -14.36 l1.88 0 l0 12.48 z M27.122 19.92 l-2.1 -7.88 l-0.3 0.5 l0 7.44 l-1.86 0 l0 -14.26 l1.86 0 l0 3.1 l1.24 -3.1 l2.3 0 l-1.9 4.12 l2.7 10.08 l-1.94 0 z"></path></g><g id="SvgjsG2051" featureKey="inlineSymbolFeature-0" transform="matrix(1.15147050210762,0,0,1.15147050210762,87.2426474894619,-10.593528399764535)" fill="#137dc5"><path xmlns="http://www.w3.org/2000/svg" d="M87.4,9.2H12.6C8.4,9.2,5,12.6,5,16.7v46.9c0,4.2,3.4,7.6,7.6,7.6H24v19.6l19.6-19.6h43.8c4.2,0,7.6-3.4,7.6-7.6V16.7  C95,12.6,91.6,9.2,87.4,9.2z M26.3,48.7c-4.7,0-8.5-3.8-8.5-8.5c0-4.7,3.8-8.5,8.5-8.5c4.7,0,8.5,3.8,8.5,8.5  C34.8,44.9,31,48.7,26.3,48.7z M50,48.7c-4.7,0-8.5-3.8-8.5-8.5c0-4.7,3.8-8.5,8.5-8.5s8.5,3.8,8.5,8.5C58.5,44.9,54.7,48.7,50,48.7  z M73.7,48.7c-4.7,0-8.5-3.8-8.5-8.5c0-4.7,3.8-8.5,8.5-8.5c4.7,0,8.5,3.8,8.5,8.5C82.2,44.9,78.4,48.7,73.7,48.7z"></path></g><g id="SvgjsG2052" featureKey="nameRightFeature-0" transform="matrix(2.5069636817458774,0,0,2.5069636817458774,204.83119805928612,14.810585943850635)" fill="#137dc5"><path d="M11.774000000000001 5.68 l0 1.92 l-2.38 0 l0 12.42 l-1.92 0 l0 -12.42 l-2.62 0 l0 -1.92 l6.92 0 z M15.748000000000001 20.02 c-1.5 0 -2.7 -1.22 -2.7 -2.7 l0 -8.98 c0 -1.48 1.2 -2.68 2.7 -2.68 c1.48 0 2.68 1.2 2.68 2.68 l0 8.98 c0 1.48 -1.2 2.7 -2.68 2.7 z M15.748000000000001 7.5600000000000005 c-0.44 0 -0.78 0.36 -0.78 0.78 l0 8.98 c0 0.44 0.34 0.78 0.78 0.78 c0.42 0 0.78 -0.34 0.78 -0.78 l0 -8.98 c0 -0.42 -0.36 -0.78 -0.78 -0.78 z M30.936 5.68 l3.34 0 l0 14.28 l-1.88 0 l0 -11.3 l-1.78 11.34 l-0.74 0 l-0.18 -0.04 l-0.16 0.04 l-0.74 0 l-1.76 -11.34 l0 11.3 l-1.9 0 l0 -14.28 l3.36 0 l1.22 8.08 z M40.78999999999999 12.46 l-2.76 0 l0 5.64 l2.78 0 l0 1.9 l-4.68 0 l0 -14.28 l4.68 0 l0 1.9 l-2.78 0 l0 2.94 l2.76 0 l0 1.9 z"></path></g>
			</g>
		</svg>
	